<?xml version="1.0" standalone="no"?>
<!DOCTYPE svg PUBLIC "-//W3C//DTD SVG 20010904//EN"
 "http://www.w3.org/TR/2001/REC-SVG-20010904/DTD/svg10.dtd">
<svg version="1.0" xmlns="http://www.w3.org/2000/svg"
 width="700.000000pt" height="700.000000pt" viewBox="0 0 700.000000 700.000000"
 preserveAspectRatio="xMidYMid meet">
<metadata>
Created by potrace 1.14, written by Peter Selinger 2001-2017
</metadata>
<g transform="translate(0.000000,700.000000) scale(0.100000,-0.100000)"
fill="#000000" stroke="none">
<path d="M1332 6338 c-101 -11 -125 -16 -212 -44 -178 -56 -297 -137 -467
-319 -24 -26 -104 -156 -124 -202 -47 -109 -76 -214 -86 -308 -8 -77 -7 -2761
1 -2835 17 -155 77 -318 166 -451 49 -73 173 -199 240 -246 108 -74 268 -144
361 -158 24 -4 47 -9 51 -11 13 -8 119 -13 306 -14 l182 0 0 -451 c0 -310 4
-464 11 -490 37 -123 191 -188 303 -127 40 21 69 43 181 138 22 19 60 51 84
70 24 19 51 42 60 50 9 9 54 47 101 85 47 38 87 72 90 75 3 3 28 23 55 45 28
22 55 44 60 50 6 6 35 31 65 56 30 24 57 46 60 49 3 4 43 37 90 75 47 38 90
74 96 80 6 5 30 26 54 45 24 19 100 83 169 142 l126 107 1150 1 c633 1 1166 3
1185 6 460 57 825 428 866 881 9 92 9 2752 0 2830 -31 284 -193 549 -435 711
-88 59 -235 124 -311 138 -25 4 -47 8 -50 9 -3 1 -25 5 -50 10 -53 10 -4286
13 -4378 3z"/>
</g>
</svg>
